<svg width="948" height="985" viewBox="0 0 948 985" fill="none" xmlns="http://www.w3.org/2000/svg">
<path d="M602.168 714.929C601.064 714.929 600.168 715.824 600.168 716.929C600.168 718.033 601.064 718.929 602.168 718.929L602.168 714.929ZM20.3333 974.072C20.3333 979.963 25.109 984.738 31 984.738C36.891 984.738 41.6667 979.963 41.6667 974.072C41.6667 968.18 36.891 963.405 31 963.405C25.109 963.405 20.3333 968.18 20.3333 974.072ZM921.286 974.072L921.286 976.072L921.286 974.072ZM602.168 718.929L921.286 718.929L921.286 714.929L602.168 714.929L602.168 718.929ZM943.286 740.929V950.072H947.286V740.929H943.286ZM921.286 972.072L31 972.072L31 976.072L921.286 976.072L921.286 972.072ZM943.286 950.072C943.286 962.222 933.436 972.072 921.286 972.072L921.286 976.072C935.645 976.072 947.286 964.431 947.286 950.072H943.286ZM921.286 718.929C933.436 718.929 943.286 728.779 943.286 740.929H947.286C947.286 726.569 935.645 714.929 921.286 714.929L921.286 718.929Z" fill="#1E1E1E"/>
<path opacity="0.5" d="M626.911 734.82C627.323 735.174 627.592 735.61 627.705 736.071H621.795C621.908 735.61 622.177 735.174 622.589 734.82C623.151 734.339 623.927 734.058 624.75 734.058C625.573 734.058 626.349 734.339 626.911 734.82ZM621.734 737.071H627.766V800.357H621.734V737.071Z" fill="#FFF7F7" stroke="black"/>
<path d="M652.875 776.75L624.75 800.857L596.625 776.75" stroke="#010101" stroke-width="1.5" stroke-linecap="round" stroke-linejoin="round"/>
<path d="M231 457.786C229.895 457.786 229 458.681 229 459.786C229 460.89 229.895 461.786 231 461.786L231 457.786ZM277.476 716.929C277.476 722.82 282.252 727.595 288.143 727.595C294.034 727.595 298.81 722.82 298.81 716.929C298.81 711.037 294.034 706.262 288.143 706.262C282.252 706.262 277.476 711.037 277.476 716.929ZM259.572 716.815H261.572H259.572ZM259.572 716.815H261.572H259.572ZM288.143 460.536H290.143H288.143ZM288.143 460.536H290.143H288.143ZM231 461.786L287.393 461.786L287.393 457.786L231 457.786L231 461.786ZM287.393 459.286H26.4287V463.286H287.393V459.286ZM0.428711 485.286V692.702H4.42871V485.286H0.428711ZM26.4287 718.702H259.458V714.702H26.4287V718.702ZM259.685 718.929H288.143V714.929H259.685V718.929ZM257.572 716.815C257.572 717.982 258.518 718.929 259.685 718.929V714.929C260.727 714.929 261.572 715.773 261.572 716.815H257.572ZM259.458 718.702C258.416 718.702 257.572 717.857 257.572 716.815H261.572C261.572 715.648 260.625 714.702 259.458 714.702V718.702ZM0.428711 692.702C0.428711 707.061 12.0693 718.702 26.4287 718.702V714.702C14.2784 714.702 4.42871 704.852 4.42871 692.702H0.428711ZM26.4287 459.286C12.0693 459.286 0.428711 470.927 0.428711 485.286H4.42871C4.42871 473.136 14.2785 463.286 26.4287 463.286V459.286ZM286.143 460.536C286.143 459.846 286.703 459.286 287.393 459.286V463.286C288.912 463.286 290.143 462.055 290.143 460.536H286.143ZM287.393 461.786C286.703 461.786 286.143 461.226 286.143 460.536H290.143C290.143 459.017 288.912 457.786 287.393 457.786L287.393 461.786Z" fill="#1E1E1E"/>
<path opacity="0.5" d="M289.411 474.106C289.823 474.459 290.092 474.896 290.205 475.357H284.295C284.408 474.896 284.677 474.459 285.089 474.106C285.651 473.625 286.427 473.344 287.25 473.344C288.073 473.344 288.849 473.625 289.411 474.106ZM284.234 476.357H290.266V539.643H284.234V476.357Z" fill="#FFF7F7" stroke="black"/>
<path d="M315.375 516.036L287.25 540.143L259.125 516.036" stroke="#010101" stroke-width="1.5" stroke-linecap="round" stroke-linejoin="round"/>
<path opacity="0.5" d="M289.411 731.32C289.823 731.674 290.092 732.11 290.205 732.571H284.295C284.408 732.11 284.677 731.674 285.089 731.32C285.651 730.839 286.427 730.558 287.25 730.558C288.073 730.558 288.849 730.839 289.411 731.32ZM284.234 733.571H290.266V796.857H284.234V733.571Z" fill="#FFF7F7" stroke="black"/>
<path d="M315.375 773.25L287.25 797.357L259.125 773.25" stroke="#010101" stroke-width="1.5" stroke-linecap="round" stroke-linejoin="round"/>
<path d="M293.25 714.929C292.145 714.929 291.25 715.824 291.25 716.929C291.25 718.033 292.145 718.929 293.25 718.929V714.929ZM614.976 716.929C614.976 722.82 619.752 727.595 625.643 727.595C631.534 727.595 636.31 722.82 636.31 716.929C636.31 711.038 631.534 706.262 625.643 706.262C619.752 706.262 614.976 711.038 614.976 716.929ZM293.25 718.929H625.643V714.929H293.25V718.929Z" fill="#1E1E1E"/>
<path d="M636.357 200.643C635.253 200.643 634.357 201.539 634.357 202.643C634.357 203.748 635.253 204.643 636.357 204.643L636.357 200.643ZM613.191 459.786C613.191 465.677 617.966 470.453 623.857 470.453C629.748 470.453 634.524 465.677 634.524 459.786C634.524 453.895 629.748 449.119 623.857 449.119C617.966 449.119 613.191 453.895 613.191 459.786ZM921.286 459.786L921.286 461.786L921.286 459.786ZM636.357 204.643L921.286 204.643L921.286 200.643L636.357 200.643L636.357 204.643ZM943.286 226.643V435.786H947.286V226.643H943.286ZM921.286 457.786L623.857 457.786L623.857 461.786L921.286 461.786L921.286 457.786ZM943.286 435.786C943.286 447.936 933.436 457.786 921.286 457.786L921.286 461.786C935.645 461.786 947.286 450.145 947.286 435.786H943.286ZM921.286 204.643C933.436 204.643 943.286 214.493 943.286 226.643H947.286C947.286 212.284 935.645 200.643 921.286 200.643L921.286 204.643Z" fill="#1E1E1E"/>
<path d="M288.144 200.643C287.039 200.643 286.144 201.538 286.144 202.643C286.144 203.748 287.039 204.643 288.144 204.643V200.643ZM613.191 202.643C613.191 208.534 617.967 213.31 623.858 213.31C629.749 213.31 634.525 208.534 634.525 202.643C634.525 196.752 629.749 191.976 623.858 191.976C617.967 191.976 613.191 196.752 613.191 202.643ZM288.144 204.643H623.858V200.643H288.144V204.643Z" fill="#1E1E1E"/>
<path d="M545.286 0.643066C544.181 0.643059 543.286 1.53848 543.286 2.64305C543.286 3.74762 544.181 4.64306 545.286 4.64307L545.286 0.643066ZM277.476 202.643C277.476 208.534 282.252 213.31 288.143 213.31C294.034 213.31 298.81 208.534 298.81 202.643C298.81 196.752 294.034 191.977 288.143 191.977C282.252 191.977 277.476 196.752 277.476 202.643ZM545.286 4.64307L549.857 4.6431L549.857 0.643098L545.286 0.643066L545.286 4.64307ZM571.857 26.6431V64.3576H575.857V26.6431H571.857ZM549.857 86.3576H26.4287V90.3576H549.857V86.3576ZM0.428711 112.358V178.643H4.42871V112.358H0.428711ZM26.4287 204.643H288.143V200.643H26.4287V204.643ZM0.428711 178.643C0.428711 193.003 12.0693 204.643 26.4287 204.643V200.643C14.2784 200.643 4.42871 190.794 4.42871 178.643H0.428711ZM26.4287 86.3576C12.0693 86.3576 0.428711 97.9982 0.428711 112.358H4.42871C4.42871 100.207 14.2785 90.3576 26.4287 90.3576V86.3576ZM571.857 64.3576C571.857 76.5078 562.008 86.3576 549.857 86.3576V90.3576C564.217 90.3576 575.857 78.717 575.857 64.3576H571.857ZM549.857 4.6431C562.008 4.64318 571.857 14.4929 571.857 26.6431H575.857C575.857 12.2838 564.217 0.643198 549.857 0.643098L549.857 4.6431Z" fill="#1E1E1E"/>
<path opacity="0.5" d="M291.197 222.32C291.609 222.674 291.878 223.11 291.991 223.571H286.081C286.194 223.11 286.463 222.674 286.876 222.32C287.437 221.839 288.214 221.558 289.036 221.558C289.859 221.558 290.635 221.839 291.197 222.32ZM286.021 224.571H292.052V287.857H286.021V224.571Z" fill="#FFF7F7" stroke="black"/>
<path d="M317.161 264.25L289.036 288.357L260.911 264.25" stroke="#010101" stroke-width="1.5" stroke-linecap="round" stroke-linejoin="round"/>
<path opacity="0.5" d="M626.911 222.32C627.323 222.674 627.592 223.11 627.705 223.571H621.795C621.908 223.11 622.177 222.674 622.589 222.32C623.151 221.839 623.927 221.558 624.75 221.558C625.573 221.558 626.349 221.839 626.911 222.32ZM621.734 224.571H627.766V287.857H621.734V224.571Z" fill="#FFF7F7" stroke="black"/>
<path d="M652.875 264.25L624.75 288.357L596.625 264.25" stroke="#010101" stroke-width="1.5" stroke-linecap="round" stroke-linejoin="round"/>
<path opacity="0.5" d="M625.124 474.106C625.537 474.459 625.806 474.896 625.919 475.357H620.009C620.122 474.896 620.391 474.459 620.803 474.106C621.365 473.625 622.141 473.344 622.964 473.344C623.786 473.344 624.563 473.625 625.124 474.106ZM619.948 476.357H625.979V539.643H619.948V476.357Z" fill="#FFF7F7" stroke="black"/>
<path d="M651.089 516.036L622.964 540.143L594.839 516.036" stroke="#010101" stroke-width="1.5" stroke-linecap="round" stroke-linejoin="round"/>
<path d="M616.964 461.786C618.068 461.786 618.964 460.89 618.964 459.786C618.964 458.681 618.068 457.786 616.964 457.786V461.786ZM276.583 459.786C276.583 465.677 281.359 470.452 287.25 470.452C293.141 470.452 297.917 465.677 297.917 459.786C297.917 453.895 293.141 449.119 287.25 449.119C281.359 449.119 276.583 453.895 276.583 459.786ZM616.964 457.786H287.25V461.786H616.964V457.786Z" fill="#1E1E1E"/>
</svg>
